Roy Orbison ΓÇÄΓÇô In Dreams / Orbisongs (1993) 
http://www.discogs.com/Roy-Orbison-In-Dreams-Orbisongs/release/3181585
Tracklist:
01. Roy Orbison - In Dreams (2:51)
02. Roy Orbison - Lonely Wine (2:56)
03. Roy Orbison - Shahdaroba (2:41)
04. Roy Orbison - No One Will Ever Know (2:29)
05. Roy Orbison - Sunset (2:31)
06. Roy Orbison - House Without Windows (2:24)
07. Roy Orbison - Dream (2:14)
08. Roy Orbison - Blue Bayou (2:31)
09. Roy Orbison - (They Call You) Gigolette (2:37)
10. Roy Orbison - All I Have To Do is Dream (2:25)
11. Roy Orbison - Beautiful Dreamer (2:20)
12. Roy Orbison - My Prayer (2:46)
13. Roy Orbison - Oh, Pretty Woman (2:59)
14. Roy Orbison - Dance (2:47)
15. Roy Orbison - (Say) You're My Girl (2:49)
16. Roy Orbison - Goodnight (2:31)
17. Roy Orbison - Night Life (2:14)
18. Roy Orbison - Let the Good Times Roll (2:38)
19. Roy Orbison - (I Get So) Sentimental (2:41)
20. Roy Orbison - Yo Te Amo Maria (3:19)
21. Roy Orbison - Wedding Day (2:09)
22. Roy Orbison - Sleepy Hollow (2:39)
23. Roy Orbison - Days (3:09)
24. Roy Orbison - (I'd Be) A Legend in My Time (3:08)

EAC LOG:
EAC extraction logfile from 18. July 2007, 7:21 for CD
Roy Orbison / In Dreams & Orbisongs

Used drive : PLEXTOR CD-R PX-W4824A Adapter: 5 ID: 0
Read mode : Secure with NO C2, accurate stream, disable cache
Read offset correction : 98
Overread into Lead-In and Lead-Out : No

Used output format : Internal WAV Routines
 44.100 Hz; 16 Bit; Stereo

Other options : 
 Fill up missing offset samples with silence : Yes
 Delete leading and trailing silent blocks : No
 Installed external ASPI interface


Range status and errors
Selected range
 Filename D:tauschreleaseIn Dreams & OrbisongsCDImage.wav

 Peak level 100.0 %
 Range quality 100.0 %
 CRC C33667D7
 Copy OK

No errors occured

End of status report

[CUETools log; Date: 14.05.2013 22:11:26; Version: 2.1.5]
[AccurateRip ID: 0035f138-03a6b03c-670ef518] found.
Track [ CRC | V2 ] Status
 01 [784a0178|a5358264] (04+00/11) Accurately ripped
 02 [a8618011|549d377b] (04+00/11) Accurately ripped
 03 [b38a6957|be54a9eb] (04+00/11) Accurately ripped
 04 [15f06375|88fa9d1c] (04+00/11) Accurately ripped
 05 [a4674c48|087d0df9] (04+00/11) Accurately ripped
 06 [6fd6e264|beb5d7f9] (04+00/11) Accurately ripped
 07 [541f971c|3fd9692f] (04+00/11) Accurately ripped
 08 [f939d182|3c65fa6e] (04+00/11) Accurately ripped
 09 [d55d8116|9f981aca] (04+00/11) Accurately ripped
 10 [adc07579|1e8f5ee9] (04+00/11) Accurately ripped
 11 [a3fac149|21a1e6fe] (04+00/11) Accurately ripped
 12 [4dd24f07|3d1a4621] (04+00/11) Accurately ripped
 13 [02152732|ba21937c] (04+00/11) Accurately ripped
 14 [670f115a|5c6f8cec] (04+00/11) Accurately ripped
 15 [03506670|45566370] (04+00/11) Accurately ripped
 16 [7c68c419|af69a2fc] (04+00/11) Accurately ripped
 17 [393b24af|b1421ec9] (04+00/11) Accurately ripped
 18 [716f983a|0d355863] (04+00/11) Accurately ripped
 19 [3c3fcbd2|8533cb8d] (03+00/10) Accurately ripped
 20 [d01d5419|0683f27a] (04+00/11) Accurately ripped
 21 [b5b6f4d3|a5ba7948] (04+00/11) Accurately ripped
 22 [639f9bc6|95c1131f] (04+00/11) Accurately ripped
 23 [acfd0870|7351d4c0] (04+00/11) Accurately ripped
 24 [a1854b1b|c8c73237] (04+00/10) Accurately ripped